G04 Generated by Ultiboard 14.0 *
%FSLAX34Y34*%
%MOMM*%

%ADD10C,0.0001*%
%ADD11C,0.1270*%
%ADD12C,1.6000*%
%ADD13R,1.2000X0.6800*%
%ADD14R,1.1800X0.5700*%
%ADD15C,0.4200*%
%ADD16R,0.5800X1.5000*%
%ADD17C,1.8500*%
%ADD18R,0.7051X0.7051*%
%ADD19C,0.9949*%
%ADD20C,2.2000*%
%ADD21C,1.8000*%
%ADD22R,1.1800X0.5800*%


G04 ColorRGB FF00CC for the following layer *
%LNSolder Mask Top*%
%LPD*%
G54D10*
G54D11*
X-12700Y873760D02*
X-12700Y886968D01*
X-12700Y873760D02*
X16256Y873760D01*
X276860Y873760D02*
X247904Y873760D01*
X276860Y873760D02*
X276860Y886968D01*
X276860Y1005840D02*
X276860Y992632D01*
X276860Y1005840D02*
X247904Y1005840D01*
X-12700Y1005840D02*
X16256Y1005840D01*
X-12700Y1005840D02*
X-12700Y992632D01*
X-62700Y873760D02*
X-162700Y873760D01*
X-112700Y823760D02*
X-112700Y923760D01*
X-150200Y873760D02*
G75*
D01*
G02X-150200Y873760I37500J0*
G01*
X326860Y873760D02*
X426860Y873760D01*
X376860Y823760D02*
X376860Y923760D01*
X339360Y873760D02*
G75*
D01*
G02X339360Y873760I37500J0*
G01*
X364360Y873760D02*
G75*
D01*
G02X364360Y873760I12500J0*
G01*
X-62700Y1005840D02*
X-162700Y1005840D01*
X-112700Y955840D02*
X-112700Y1055840D01*
X-150200Y1005840D02*
G75*
D01*
G02X-150200Y1005840I37500J0*
G01*
X-137700Y1005840D02*
G75*
D01*
G02X-137700Y1005840I25000J0*
G01*
X-125200Y1005840D02*
G75*
D01*
G02X-125200Y1005840I12500J0*
G01*
G54D12*
X106680Y970280D03*
G54D13*
X176460Y889660D03*
X199460Y899160D03*
X176460Y908660D03*
G54D14*
X208280Y930275D03*
X208280Y949325D03*
X76200Y894715D03*
X76200Y913765D03*
X67000Y940435D03*
X67000Y959485D03*
G54D15*
X202380Y927425D02*
X214180Y927425D01*
X214180Y933125D01*
X202380Y933125D01*
X202380Y927425D01*D02*
X202380Y946475D02*
X214180Y946475D01*
X214180Y952175D01*
X202380Y952175D01*
X202380Y946475D01*D02*
X70300Y891865D02*
X82100Y891865D01*
X82100Y897565D01*
X70300Y897565D01*
X70300Y891865D01*D02*
X70300Y910915D02*
X82100Y910915D01*
X82100Y916615D01*
X70300Y916615D01*
X70300Y910915D01*D02*
X61100Y937585D02*
X72900Y937585D01*
X72900Y943285D01*
X61100Y943285D01*
X61100Y937585D01*D02*
X61100Y956635D02*
X72900Y956635D01*
X72900Y962335D01*
X61100Y962335D01*
X61100Y956635D01*D02*
X126180Y947695D02*
X137980Y947695D01*
X137980Y953495D01*
X126180Y953495D01*
X126180Y947695D01*D02*
X126180Y966745D02*
X137980Y966745D01*
X137980Y972545D01*
X126180Y972545D01*
X126180Y966745D01*D02*
X105860Y891815D02*
X117660Y891815D01*
X117660Y897615D01*
X105860Y897615D01*
X105860Y891815D01*D02*
X105860Y910865D02*
X117660Y910865D01*
X117660Y916665D01*
X105860Y916665D01*
X105860Y910865D01*D02*
X141420Y891815D02*
X153220Y891815D01*
X153220Y897615D01*
X141420Y897615D01*
X141420Y891815D01*D02*
X141420Y910865D02*
X153220Y910865D01*
X153220Y916665D01*
X141420Y916665D01*
X141420Y910865D01*D02*
G54D16*
X158140Y947120D03*
X177140Y947120D03*
X167640Y947120D03*
X158140Y973120D03*
X167640Y973120D03*
X177140Y973120D03*
G54D17*
X250400Y990000D03*
X30000Y924600D03*
G54D18*
X225000Y990000D03*
X30000Y950000D03*
G54D19*
X221475Y986475D02*
X228525Y986475D01*
X228525Y993525D01*
X221475Y993525D01*
X221475Y986475D01*D02*
X26475Y946475D02*
X33525Y946475D01*
X33525Y953525D01*
X26475Y953525D01*
X26475Y946475D01*D02*
G54D20*
X7620Y985520D03*
X7620Y894080D03*
X256540Y934720D03*
G54D21*
X58420Y988060D03*
X109220Y939800D03*
X38100Y891540D03*
X236220Y894080D03*
G54D22*
X132080Y950595D03*
X132080Y969645D03*
X111760Y894715D03*
X111760Y913765D03*
X147320Y894715D03*
X147320Y913765D03*

M02*
