G04 Generated by Ultiboard 14.0 *
%FSLAX34Y34*%
%MOMM*%

%ADD10C,0.0001*%
%ADD11C,0.1270*%
%ADD12C,1.6000*%
%ADD13C,1.8500*%
%ADD14R,0.7051X0.7051*%
%ADD15C,0.9949*%
%ADD16C,2.2000*%
%ADD17C,1.8000*%


G04 ColorRGB 9900CC for the following layer *
%LNSolder Mask Bottom*%
%LPD*%
G54D10*
G54D11*
X-12700Y873760D02*
X-12700Y886968D01*
X-12700Y873760D02*
X16256Y873760D01*
X276860Y873760D02*
X247904Y873760D01*
X276860Y873760D02*
X276860Y886968D01*
X276860Y1005840D02*
X276860Y992632D01*
X276860Y1005840D02*
X247904Y1005840D01*
X-12700Y1005840D02*
X16256Y1005840D01*
X-12700Y1005840D02*
X-12700Y992632D01*
X-62700Y873760D02*
X-162700Y873760D01*
X-112700Y823760D02*
X-112700Y923760D01*
X-150200Y873760D02*
G75*
D01*
G02X-150200Y873760I37500J0*
G01*
X326860Y873760D02*
X426860Y873760D01*
X376860Y823760D02*
X376860Y923760D01*
X339360Y873760D02*
G75*
D01*
G02X339360Y873760I37500J0*
G01*
X364360Y873760D02*
G75*
D01*
G02X364360Y873760I12500J0*
G01*
X-62700Y1005840D02*
X-162700Y1005840D01*
X-112700Y955840D02*
X-112700Y1055840D01*
X-150200Y1005840D02*
G75*
D01*
G02X-150200Y1005840I37500J0*
G01*
X-137700Y1005840D02*
G75*
D01*
G02X-137700Y1005840I25000J0*
G01*
X-125200Y1005840D02*
G75*
D01*
G02X-125200Y1005840I12500J0*
G01*
G54D12*
X106680Y970280D03*
G54D13*
X250400Y990000D03*
X30000Y924600D03*
G54D14*
X225000Y990000D03*
X30000Y950000D03*
G54D15*
X221475Y986475D02*
X228525Y986475D01*
X228525Y993525D01*
X221475Y993525D01*
X221475Y986475D01*D02*
X26475Y946475D02*
X33525Y946475D01*
X33525Y953525D01*
X26475Y953525D01*
X26475Y946475D01*D02*
G54D16*
X7620Y985520D03*
X7620Y894080D03*
X256540Y934720D03*
G54D17*
X58420Y988060D03*
X109220Y939800D03*
X38100Y891540D03*
X236220Y894080D03*

M02*
