G04 Generated by Ultiboard 14.0 *
%FSLAX34Y34*%
%MOMM*%

%ADD10C,0.0001*%
%ADD11C,0.2540*%
%ADD12C,0.6000*%
%ADD13C,0.5800*%
%ADD14C,0.1270*%
%ADD15C,1.6000*%
%ADD16R,1.2000X0.6800*%
%ADD17R,1.1800X0.5700*%
%ADD18C,0.4200*%
%ADD19R,0.5800X1.5000*%
%ADD20C,1.8500*%
%ADD21R,0.7051X0.7051*%
%ADD22C,0.9949*%
%ADD23C,1.8000*%
%ADD24R,1.1800X0.5800*%


G04 ColorRGB 00FF00 for the following layer *
%LNCopper Top*%
%LPD*%
G54D10*
G36*
X224211Y883103D02*
X224211Y883103D01*
X188486Y883103D01*
G74*
D01*
G03X189259Y886042I6026J3156*
G01*
X189259Y886042D01*
X163661Y886042D01*
G74*
D01*
G03X164434Y883103I6799J217*
G01*
X164434Y883103D01*
X155101Y883103D01*
G74*
D01*
G03X155149Y883113I1794J8730*
G01*
X155149Y883113D01*
X147320Y889357D01*
X139491Y883113D01*
G74*
D01*
G03X139539Y883103I1842J8721*
G01*
X139539Y883103D01*
X119541Y883103D01*
G74*
D01*
G03X119589Y883113I1794J8730*
G01*
X119589Y883113D01*
X111760Y889357D01*
X103931Y883113D01*
G74*
D01*
G03X103979Y883103I1842J8721*
G01*
X103979Y883103D01*
X83732Y883103D01*
G74*
D01*
G03X84037Y883165I1623J8763*
G01*
X84037Y883165D01*
X76200Y889389D01*
X68363Y883165D01*
G74*
D01*
G03X68668Y883103I1928J8702*
G01*
X68668Y883103D01*
X51423Y883103D01*
G75*
D01*
G03X43692Y906285I-13322J8437*
G01*
X43692Y906285D01*
X43692Y883103D01*
X32508Y883103D01*
X32508Y906285D01*
G74*
D01*
G03X24523Y899563I5591J14745*
G01*
G75*
D01*
G03X-3357Y908054I-16903J-5483*
G01*
X-3357Y908054D01*
X-3357Y971546D01*
G75*
D01*
G03X21594Y996497I10982J13969*
G01*
X21594Y996497D01*
X45097Y996497D01*
G75*
D01*
G03X56223Y972444I13322J-8438*
G01*
X56223Y972444D01*
X56223Y969795D01*
G74*
D01*
G03X52187Y962335I4876J7460*
G01*
X52187Y962335D01*
X52187Y956635D01*
G75*
D01*
G03X55194Y949960I8913J0*
G01*
G74*
D01*
G03X52187Y943285I5905J6675*
G01*
X52187Y943285D01*
X52187Y937585D01*
G75*
D01*
G03X57262Y929541I8913J0*
G01*
G74*
D01*
G03X59098Y926996I8777J4397*
G01*
X59098Y926996D01*
X63600Y922493D01*
G74*
D01*
G03X61387Y916615I6699J5878*
G01*
X61387Y916615D01*
X61387Y910915D01*
G75*
D01*
G03X70300Y902002I8913J0*
G01*
X70300Y902002D01*
X73731Y902002D01*
X76200Y900041D01*
X78669Y902002D01*
X82100Y902002D01*
G75*
D01*
G03X91013Y910915I0J8913*
G01*
X91013Y910915D01*
X91013Y912203D01*
X96947Y912203D01*
X96947Y910865D01*
G75*
D01*
G03X105860Y901952I8913J0*
G01*
X105860Y901952D01*
X109404Y901952D01*
X111760Y900073D01*
X114116Y901952D01*
X117660Y901952D01*
G74*
D01*
G03X126562Y910421I0J8913*
G01*
X126562Y910421D01*
X132518Y910421D01*
G75*
D01*
G03X141420Y901952I8902J444*
G01*
X141420Y901952D01*
X144964Y901952D01*
X147320Y900073D01*
X149676Y901952D01*
X153220Y901952D01*
G75*
D01*
G03X162133Y910865I0J8913*
G01*
X162133Y910865D01*
X162133Y913375D01*
G74*
D01*
G03X164310Y914968I4654J8644*
G01*
G74*
D01*
G03X163657Y912060I6149J2908*
G01*
X163657Y912060D01*
X163657Y905260D01*
G75*
D01*
G03X167449Y899160I6803J0*
G01*
G74*
D01*
G03X163661Y893278I3011J6100*
G01*
X163661Y893278D01*
X187126Y893278D01*
G75*
D01*
G03X193460Y888957I6333J2481*
G01*
X193460Y888957D01*
X202991Y888957D01*
G75*
D01*
G03X204540Y888840I1550J10202*
G01*
X204540Y888840D01*
X220817Y888840D01*
G74*
D01*
G03X224211Y883103I15402J5239*
G01*
D02*
G37*
%LPC*%
G36*
X26250Y924600D02*
G75*
D01*
G03X26250Y924600I3750J0*
G01*
D02*
G37*
G36*
X161573Y888706D02*
G75*
D01*
G03X162133Y891815I-8352J3109*
G01*
X162133Y891815D01*
X162133Y897615D01*
G74*
D01*
G03X161573Y900724I8913J0*
G01*
X161573Y900724D01*
X154039Y894715D01*
X161573Y888706D01*
D02*
G37*
G36*
X35100Y891540D02*
G75*
D01*
G03X35100Y891540I3000J0*
G01*
D02*
G37*
G36*
X24319Y934872D02*
G74*
D01*
G03X26475Y934673I2158J11602*
G01*
X26475Y934673D01*
X33525Y934673D01*
G75*
D01*
G03X35681Y934872I-2J11802*
G01*
X35681Y934872D01*
X35681Y909621D01*
G75*
D01*
G03X40338Y936838I-5681J14979*
G01*
G75*
D01*
G03X45327Y946475I-6813J9637*
G01*
X45327Y946475D01*
X45327Y953525D01*
G74*
D01*
G03X33525Y965327I11802J0*
G01*
X33525Y965327D01*
X26475Y965327D01*
G75*
D01*
G03X14673Y953525I0J-11802*
G01*
X14673Y953525D01*
X14673Y946475D01*
G75*
D01*
G03X19662Y936838I11802J0*
G01*
G75*
D01*
G03X24319Y909621I10338J-12238*
G01*
X24319Y909621D01*
X24319Y934872D01*
D02*
G37*
G36*
X90444Y900699D02*
X90444Y900699D01*
X82908Y894715D01*
X90444Y888731D01*
G75*
D01*
G03X91013Y891865I-8344J3134*
G01*
X91013Y891865D01*
X91013Y897565D01*
G74*
D01*
G03X90444Y900699I8913J0*
G01*
D02*
G37*
G36*
X133067Y888706D02*
X133067Y888706D01*
X140601Y894715D01*
X133067Y900724D01*
G74*
D01*
G03X132507Y897615I8352J3109*
G01*
X132507Y897615D01*
X132507Y891815D01*
G75*
D01*
G03X133067Y888706I8913J0*
G01*
D02*
G37*
G36*
X61956Y900699D02*
G74*
D01*
G03X61387Y897565I8344J3134*
G01*
X61387Y897565D01*
X61387Y891865D01*
G75*
D01*
G03X61956Y888731I8913J0*
G01*
X61956Y888731D01*
X69492Y894715D01*
X61956Y900699D01*
D02*
G37*
G36*
X97507Y888706D02*
X97507Y888706D01*
X105041Y894715D01*
X97507Y900724D01*
G74*
D01*
G03X96947Y897615I8352J3109*
G01*
X96947Y897615D01*
X96947Y891815D01*
G75*
D01*
G03X97507Y888706I8913J0*
G01*
D02*
G37*
G36*
X126013Y888706D02*
G75*
D01*
G03X126573Y891815I-8352J3109*
G01*
X126573Y891815D01*
X126573Y897615D01*
G74*
D01*
G03X126013Y900724I8913J0*
G01*
X126013Y900724D01*
X118479Y894715D01*
X126013Y888706D01*
D02*
G37*
%LPD*%
G36*
X223093Y946475D02*
G75*
D01*
G02X220086Y939800I-8913J0*
G01*
G74*
D01*
G02X223093Y933125I5905J6675*
G01*
X223093Y933125D01*
X223093Y927425D01*
G75*
D01*
G02X214180Y918512I-8913J0*
G01*
X214180Y918512D01*
X210401Y918512D01*
X204435Y912546D01*
G74*
D01*
G02X197485Y909663I6949J6934*
G01*
X197485Y909663D01*
X189263Y909663D01*
X189263Y907914D01*
G75*
D01*
G02X193460Y909363I4197J-5353*
G01*
X193460Y909363D01*
X202991Y909363D01*
G75*
D01*
G02X204540Y909480I1550J-10202*
G01*
X204540Y909480D01*
X230970Y909480D01*
G75*
D01*
G02X248229Y883103I5250J-15400*
G01*
X248229Y883103D01*
X267517Y883103D01*
X267517Y920746D01*
G75*
D01*
G02X267517Y948694I-10976J13974*
G01*
X267517Y948694D01*
X267517Y996497D01*
X265043Y996497D01*
G75*
D01*
G02X238162Y979662I-14640J-6502*
G01*
G74*
D01*
G02X228525Y974673I9637J6813*
G01*
X228525Y974673D01*
X221475Y974673D01*
G75*
D01*
G02X209673Y986475I0J11802*
G01*
X209673Y986475D01*
X209673Y993525D01*
G74*
D01*
G02X210053Y996497I11802J1*
G01*
X210053Y996497D01*
X71743Y996497D01*
G75*
D01*
G02X74067Y986092I-13322J-8438*
G01*
G74*
D01*
G02X75857Y980440I8027J5652*
G01*
X75857Y980440D01*
X75857Y970743D01*
G74*
D01*
G02X81813Y962335I2956J8407*
G01*
X81813Y962335D01*
X81813Y956635D01*
G75*
D01*
G02X78806Y949960I-8913J0*
G01*
G74*
D01*
G02X81813Y943285I5905J6675*
G01*
X81813Y943285D01*
X81813Y937585D01*
G75*
D01*
G02X80660Y933201I-8913J1*
G01*
X80660Y933201D01*
X82024Y931837D01*
X95608Y931837D01*
G75*
D01*
G02X103628Y954545I13612J7963*
G01*
X103628Y954545D01*
X103628Y931837D01*
X104140Y931837D01*
G74*
D01*
G02X111090Y928954I1J9817*
G01*
X111090Y928954D01*
X112217Y927827D01*
G74*
D01*
G02X114145Y929064I6229J7588*
G01*
G74*
D01*
G02X114812Y929359I4301J8823*
G01*
X114812Y929359D01*
X114812Y954545D01*
G74*
D01*
G02X117267Y953362I5592J14744*
G01*
X117267Y953362D01*
X117267Y953495D01*
G74*
D01*
G02X117827Y956604I8913J0*
G01*
X117827Y956604D01*
X125361Y950595D01*
X122497Y948310D01*
G75*
D01*
G02X124988Y939582I-13277J-8509*
G01*
X124988Y939582D01*
X132080Y945237D01*
X139909Y938993D01*
G74*
D01*
G02X137980Y938782I1928J8702*
G01*
X137980Y938782D01*
X126180Y938782D01*
G75*
D01*
G02X124962Y938866I3J8913*
G01*
G74*
D01*
G02X121619Y930056I15741J934*
G01*
X121619Y930056D01*
X139140Y930056D01*
G75*
D01*
G02X144780Y931837I5639J-8036*
G01*
X144780Y931837D01*
X153414Y931837D01*
X154441Y932864D01*
G75*
D01*
G02X148437Y939620I799J6756*
G01*
X148437Y939620D01*
X148437Y954620D01*
G74*
D01*
G02X151237Y960120I6803J1*
G01*
G75*
D01*
G02X148437Y965620I4002J5500*
G01*
X148437Y965620D01*
X148437Y966458D01*
G75*
D01*
G02X147663Y970280I9043J3821*
G01*
X147663Y970280D01*
X147663Y970623D01*
X146893Y970623D01*
X146893Y966745D01*
G75*
D01*
G02X137980Y957832I-8913J0*
G01*
X137980Y957832D01*
X134436Y957832D01*
X132080Y955953D01*
X129724Y957832D01*
X126180Y957832D01*
G75*
D01*
G02X118769Y961794I0J8913*
G01*
G75*
D01*
G02X101577Y984140I-12089J8485*
G01*
X101577Y984140D01*
X104818Y987382D01*
G74*
D01*
G02X110327Y990152I6941J6942*
G01*
G75*
D01*
G02X111760Y990257I1432J-9712*
G01*
X111760Y990257D01*
X154940Y990257D01*
G74*
D01*
G02X161890Y987374I1J9817*
G01*
X161890Y987374D01*
X161895Y987369D01*
G74*
D01*
G02X162890Y987166I858J6748*
G01*
G74*
D01*
G02X164199Y987401I1851J6545*
G01*
X164199Y987401D01*
X164199Y986645D01*
G74*
D01*
G02X167640Y982268I3159J6024*
G01*
G74*
D01*
G02X167940Y983186I6599J1649*
G01*
G75*
D01*
G02X177700Y991946I9760J-1057*
G01*
X177700Y991946D01*
X188810Y991946D01*
G75*
D01*
G02X188954Y991945I4J-9817*
G01*
G74*
D01*
G02X195761Y989062I143J9816*
G01*
X195761Y989062D01*
X215214Y969610D01*
G74*
D01*
G02X218097Y962660I6934J6949*
G01*
X218097Y962660D01*
X218097Y960181D01*
G74*
D01*
G02X223093Y952175I3916J8006*
G01*
X223093Y952175D01*
X223093Y946475D01*
D02*
G37*
%LPC*%
G36*
X106220Y939800D02*
G75*
D01*
G02X106220Y939800I3000J0*
G01*
D02*
G37*
G36*
X146333Y944586D02*
X146333Y944586D01*
X138799Y950595D01*
X146333Y956604D01*
G74*
D01*
G02X146893Y953495I8352J3109*
G01*
X146893Y953495D01*
X146893Y947695D01*
G75*
D01*
G02X146333Y944586I-8913J0*
G01*
D02*
G37*
%LPD*%
G36*
X196474Y939800D02*
G75*
D01*
G02X193467Y946475I5905J6675*
G01*
X193467Y946475D01*
X193467Y952175D01*
G74*
D01*
G02X197454Y959603I8913J0*
G01*
X197454Y959603D01*
X186843Y970214D01*
X186843Y965620D01*
G75*
D01*
G02X184043Y960120I-6803J1*
G01*
G74*
D01*
G02X186843Y954620I4002J5500*
G01*
X186843Y954620D01*
X186843Y950282D01*
G74*
D01*
G02X187617Y946460I9043J3821*
G01*
X187617Y946460D01*
X187617Y936477D01*
G75*
D01*
G02X184736Y929530I-9817J0*
G01*
X184736Y929530D01*
X184504Y929297D01*
X193419Y929297D01*
X193467Y929346D01*
X193467Y933125D01*
G74*
D01*
G02X196474Y939800I8913J0*
G01*
D02*
G37*
G36*
X154699Y958839D02*
X154699Y958839D01*
X154699Y933123D01*
X157825Y936249D01*
G75*
D01*
G02X157823Y936477I9815J200*
G01*
X157823Y936477D01*
X157823Y947120D01*
G74*
D01*
G02X157937Y948615I9817J3*
G01*
X157937Y948615D01*
X157937Y954620D01*
G74*
D01*
G02X159386Y958817I6803J0*
G01*
X159386Y958817D01*
X155240Y958817D01*
G75*
D01*
G02X154699Y958839I6J6803*
G01*
D02*
G37*
G54D11*
X26250Y924600D02*
G75*
D01*
G03X26250Y924600I3750J0*
G01*
X161573Y888706D02*
G75*
D01*
G03X162133Y891815I-8352J3109*
G01*
X162133Y897615D01*
G74*
D01*
G03X161573Y900724I8913J0*
G01*
X154039Y894715D01*
X161573Y888706D01*
X35100Y891540D02*
G75*
D01*
G03X35100Y891540I3000J0*
G01*
X24319Y934872D02*
G74*
D01*
G03X26475Y934673I2158J11602*
G01*
X33525Y934673D01*
G75*
D01*
G03X35681Y934872I-2J11802*
G01*
X35681Y909621D01*
G75*
D01*
G03X40338Y936838I-5681J14979*
G01*
G75*
D01*
G03X45327Y946475I-6813J9637*
G01*
X45327Y953525D01*
G74*
D01*
G03X33525Y965327I11802J0*
G01*
X26475Y965327D01*
G75*
D01*
G03X14673Y953525I0J-11802*
G01*
X14673Y946475D01*
G75*
D01*
G03X19662Y936838I11802J0*
G01*
G75*
D01*
G03X24319Y909621I10338J-12238*
G01*
X24319Y934872D01*
X90444Y900699D02*
X82908Y894715D01*
X90444Y888731D01*
G75*
D01*
G03X91013Y891865I-8344J3134*
G01*
X91013Y897565D01*
G74*
D01*
G03X90444Y900699I8913J0*
G01*
X133067Y888706D02*
X140601Y894715D01*
X133067Y900724D01*
G74*
D01*
G03X132507Y897615I8352J3109*
G01*
X132507Y891815D01*
G75*
D01*
G03X133067Y888706I8913J0*
G01*
X61956Y900699D02*
G74*
D01*
G03X61387Y897565I8344J3134*
G01*
X61387Y891865D01*
G75*
D01*
G03X61956Y888731I8913J0*
G01*
X69492Y894715D01*
X61956Y900699D01*
X97507Y888706D02*
X105041Y894715D01*
X97507Y900724D01*
G74*
D01*
G03X96947Y897615I8352J3109*
G01*
X96947Y891815D01*
G75*
D01*
G03X97507Y888706I8913J0*
G01*
X126013Y888706D02*
G75*
D01*
G03X126573Y891815I-8352J3109*
G01*
X126573Y897615D01*
G74*
D01*
G03X126013Y900724I8913J0*
G01*
X118479Y894715D01*
X126013Y888706D01*
X224211Y883103D02*
X188486Y883103D01*
G74*
D01*
G03X189259Y886042I6026J3156*
G01*
X163661Y886042D01*
G74*
D01*
G03X164434Y883103I6799J217*
G01*
X155101Y883103D01*
G74*
D01*
G03X155149Y883113I1794J8730*
G01*
X147320Y889357D01*
X139491Y883113D01*
G74*
D01*
G03X139539Y883103I1842J8721*
G01*
X119541Y883103D01*
G74*
D01*
G03X119589Y883113I1794J8730*
G01*
X111760Y889357D01*
X103931Y883113D01*
G74*
D01*
G03X103979Y883103I1842J8721*
G01*
X83732Y883103D01*
G74*
D01*
G03X84037Y883165I1623J8763*
G01*
X76200Y889389D01*
X68363Y883165D01*
G74*
D01*
G03X68668Y883103I1928J8702*
G01*
X51423Y883103D01*
G75*
D01*
G03X43692Y906285I-13322J8437*
G01*
X43692Y883103D01*
X32508Y883103D01*
X32508Y906285D01*
G74*
D01*
G03X24523Y899563I5591J14745*
G01*
G75*
D01*
G03X-3357Y908054I-16903J-5483*
G01*
X-3357Y971546D01*
G75*
D01*
G03X21594Y996497I10982J13969*
G01*
X45097Y996497D01*
G75*
D01*
G03X56223Y972444I13322J-8438*
G01*
X56223Y969795D01*
G74*
D01*
G03X52187Y962335I4876J7460*
G01*
X52187Y956635D01*
G75*
D01*
G03X55194Y949960I8913J0*
G01*
G74*
D01*
G03X52187Y943285I5905J6675*
G01*
X52187Y937585D01*
G75*
D01*
G03X57262Y929541I8913J0*
G01*
G74*
D01*
G03X59098Y926996I8777J4397*
G01*
X63600Y922493D01*
G74*
D01*
G03X61387Y916615I6699J5878*
G01*
X61387Y910915D01*
G75*
D01*
G03X70300Y902002I8913J0*
G01*
X73731Y902002D01*
X76200Y900041D01*
X78669Y902002D01*
X82100Y902002D01*
G75*
D01*
G03X91013Y910915I0J8913*
G01*
X91013Y912203D01*
X96947Y912203D01*
X96947Y910865D01*
G75*
D01*
G03X105860Y901952I8913J0*
G01*
X109404Y901952D01*
X111760Y900073D01*
X114116Y901952D01*
X117660Y901952D01*
G74*
D01*
G03X126562Y910421I0J8913*
G01*
X132518Y910421D01*
G75*
D01*
G03X141420Y901952I8902J444*
G01*
X144964Y901952D01*
X147320Y900073D01*
X149676Y901952D01*
X153220Y901952D01*
G75*
D01*
G03X162133Y910865I0J8913*
G01*
X162133Y913375D01*
G74*
D01*
G03X164310Y914968I4654J8644*
G01*
G74*
D01*
G03X163657Y912060I6149J2908*
G01*
X163657Y905260D01*
G75*
D01*
G03X167449Y899160I6803J0*
G01*
G74*
D01*
G03X163661Y893278I3011J6100*
G01*
X187126Y893278D01*
G75*
D01*
G03X193460Y888957I6333J2481*
G01*
X202991Y888957D01*
G75*
D01*
G03X204540Y888840I1550J10202*
G01*
X220817Y888840D01*
G74*
D01*
G03X224211Y883103I15402J5239*
G01*
X196474Y939800D02*
G75*
D01*
G02X193467Y946475I5905J6675*
G01*
X193467Y952175D01*
G74*
D01*
G02X197454Y959603I8913J0*
G01*
X186843Y970214D01*
X186843Y965620D01*
G75*
D01*
G02X184043Y960120I-6803J1*
G01*
G74*
D01*
G02X186843Y954620I4002J5500*
G01*
X186843Y950282D01*
G74*
D01*
G02X187617Y946460I9043J3821*
G01*
X187617Y936477D01*
G75*
D01*
G02X184736Y929530I-9817J0*
G01*
X184504Y929297D01*
X193419Y929297D01*
X193467Y929346D01*
X193467Y933125D01*
G74*
D01*
G02X196474Y939800I8913J0*
G01*
X106220Y939800D02*
G75*
D01*
G02X106220Y939800I3000J0*
G01*
X146333Y944586D02*
X138799Y950595D01*
X146333Y956604D01*
G74*
D01*
G02X146893Y953495I8352J3109*
G01*
X146893Y947695D01*
G75*
D01*
G02X146333Y944586I-8913J0*
G01*
X223093Y946475D02*
G75*
D01*
G02X220086Y939800I-8913J0*
G01*
G74*
D01*
G02X223093Y933125I5905J6675*
G01*
X223093Y927425D01*
G75*
D01*
G02X214180Y918512I-8913J0*
G01*
X210401Y918512D01*
X204435Y912546D01*
G74*
D01*
G02X197485Y909663I6949J6934*
G01*
X189263Y909663D01*
X189263Y907914D01*
G75*
D01*
G02X193460Y909363I4197J-5353*
G01*
X202991Y909363D01*
G75*
D01*
G02X204540Y909480I1550J-10202*
G01*
X230970Y909480D01*
G75*
D01*
G02X248229Y883103I5250J-15400*
G01*
X267517Y883103D01*
X267517Y920746D01*
G75*
D01*
G02X267517Y948694I-10976J13974*
G01*
X267517Y996497D01*
X265043Y996497D01*
G75*
D01*
G02X238162Y979662I-14640J-6502*
G01*
G74*
D01*
G02X228525Y974673I9637J6813*
G01*
X221475Y974673D01*
G75*
D01*
G02X209673Y986475I0J11802*
G01*
X209673Y993525D01*
G74*
D01*
G02X210053Y996497I11802J1*
G01*
X71743Y996497D01*
G75*
D01*
G02X74067Y986092I-13322J-8438*
G01*
G74*
D01*
G02X75857Y980440I8027J5652*
G01*
X75857Y970743D01*
G74*
D01*
G02X81813Y962335I2956J8407*
G01*
X81813Y956635D01*
G75*
D01*
G02X78806Y949960I-8913J0*
G01*
G74*
D01*
G02X81813Y943285I5905J6675*
G01*
X81813Y937585D01*
G75*
D01*
G02X80660Y933201I-8913J1*
G01*
X82024Y931837D01*
X95608Y931837D01*
G75*
D01*
G02X103628Y954545I13612J7963*
G01*
X103628Y931837D01*
X104140Y931837D01*
G74*
D01*
G02X111090Y928954I1J9817*
G01*
X112217Y927827D01*
G74*
D01*
G02X114145Y929064I6229J7588*
G01*
G74*
D01*
G02X114812Y929359I4301J8823*
G01*
X114812Y954545D01*
G74*
D01*
G02X117267Y953362I5592J14744*
G01*
X117267Y953495D01*
G74*
D01*
G02X117827Y956604I8913J0*
G01*
X125361Y950595D01*
X122497Y948310D01*
G75*
D01*
G02X124988Y939582I-13277J-8509*
G01*
X132080Y945237D01*
X139909Y938993D01*
G74*
D01*
G02X137980Y938782I1928J8702*
G01*
X126180Y938782D01*
G75*
D01*
G02X124962Y938866I3J8913*
G01*
G74*
D01*
G02X121619Y930056I15741J934*
G01*
X139140Y930056D01*
G75*
D01*
G02X144780Y931837I5639J-8036*
G01*
X153414Y931837D01*
X154441Y932864D01*
G75*
D01*
G02X148437Y939620I799J6756*
G01*
X148437Y954620D01*
G74*
D01*
G02X151237Y960120I6803J1*
G01*
G75*
D01*
G02X148437Y965620I4002J5500*
G01*
X148437Y966458D01*
G75*
D01*
G02X147663Y970280I9043J3821*
G01*
X147663Y970623D01*
X146893Y970623D01*
X146893Y966745D01*
G75*
D01*
G02X137980Y957832I-8913J0*
G01*
X134436Y957832D01*
X132080Y955953D01*
X129724Y957832D01*
X126180Y957832D01*
G75*
D01*
G02X118769Y961794I0J8913*
G01*
G75*
D01*
G02X101577Y984140I-12089J8485*
G01*
X104818Y987382D01*
G74*
D01*
G02X110327Y990152I6941J6942*
G01*
G75*
D01*
G02X111760Y990257I1432J-9712*
G01*
X154940Y990257D01*
G74*
D01*
G02X161890Y987374I1J9817*
G01*
X161895Y987369D01*
G74*
D01*
G02X162890Y987166I858J6748*
G01*
G74*
D01*
G02X164199Y987401I1851J6545*
G01*
X164199Y986645D01*
G74*
D01*
G02X167640Y982268I3159J6024*
G01*
G74*
D01*
G02X167940Y983186I6599J1649*
G01*
G75*
D01*
G02X177700Y991946I9760J-1057*
G01*
X188810Y991946D01*
G75*
D01*
G02X188954Y991945I4J-9817*
G01*
G74*
D01*
G02X195761Y989062I143J9816*
G01*
X215214Y969610D01*
G74*
D01*
G02X218097Y962660I6934J6949*
G01*
X218097Y960181D01*
G74*
D01*
G02X223093Y952175I3916J8006*
G01*
X223093Y946475D01*
X154699Y958839D02*
X154699Y933123D01*
X157825Y936249D01*
G75*
D01*
G02X157823Y936477I9815J200*
G01*
X157823Y947120D01*
G74*
D01*
G02X157937Y948615I9817J3*
G01*
X157937Y954620D01*
G74*
D01*
G02X159386Y958817I6803J0*
G01*
X155240Y958817D01*
G75*
D01*
G02X154699Y958839I6J6803*
G01*
G54D12*
X154940Y980440D02*
X157480Y977900D01*
X111760Y980440D02*
X154940Y980440D01*
X44100Y885540D02*
X74930Y885540D01*
X38100Y891540D02*
X44100Y885540D01*
X98119Y941399D02*
X136219Y941399D01*
X98119Y941399D02*
X97790Y941070D01*
X88900Y967740D02*
X88900Y949960D01*
X97790Y941070D01*
X111760Y980440D02*
X106680Y975360D01*
X106680Y970280D01*
X167640Y988060D02*
X161290Y994410D01*
X177500Y980371D02*
X177500Y975469D01*
X177700Y982129D02*
X188811Y982129D01*
X58420Y988060D02*
X66040Y980440D01*
X66040Y959485D01*
X66040Y940435D02*
X66040Y933937D01*
X73660Y926317D01*
X102870Y994410D02*
X88900Y980440D01*
X161290Y994410D02*
X102870Y994410D01*
X88900Y980440D02*
X88900Y967740D01*
X208280Y962660D02*
X188811Y982129D01*
X208280Y949325D02*
X208280Y962660D01*
X176460Y915740D02*
X176460Y910660D01*
X176460Y915740D02*
X180200Y919480D01*
X197485Y919480D01*
X208280Y930275D01*
X204540Y899160D02*
X233680Y899160D01*
X228600Y899160D01*
X236220Y896620D02*
X233680Y899160D01*
X131233Y945727D02*
X137160Y939800D01*
X153360Y939800D01*
X158140Y944580D01*
X77957Y885190D02*
X144780Y885190D01*
X77957Y885190D02*
X76200Y886947D01*
X76200Y894715D01*
X111760Y894927D02*
X111760Y886460D01*
X144780Y885190D02*
X147320Y887730D01*
X149860Y885190D02*
X147320Y887730D01*
X149860Y885190D02*
X166370Y885190D01*
X147320Y894927D02*
X147320Y886027D01*
X166370Y885190D02*
X170840Y889660D01*
X176460Y889660D01*
X157480Y970280D02*
X157480Y977900D01*
X132080Y969433D02*
X132080Y980440D01*
X167640Y947120D02*
X167640Y936477D01*
X170180Y934720D02*
X157480Y922020D01*
X169397Y934720D02*
X176043Y934720D01*
X169397Y934720D02*
X168519Y935599D01*
X157480Y922020D02*
X144780Y922020D01*
X176043Y934720D02*
X177800Y936477D01*
X177800Y946460D01*
X118445Y920239D02*
X144804Y920239D01*
X148162Y916881D01*
X148162Y914395D01*
X111760Y913553D02*
X118445Y920239D01*
X148162Y914395D02*
X147320Y913553D01*
X104140Y922020D02*
X111760Y914400D01*
X111760Y913553D01*
X77957Y922020D02*
X104140Y922020D01*
X76200Y922020D02*
X76200Y913765D01*
X73660Y926317D02*
X77957Y922020D01*
G54D13*
X167640Y973120D02*
X167640Y988060D01*
G54D14*
X-12700Y873760D02*
X-12700Y886968D01*
X-12700Y873760D02*
X16256Y873760D01*
X276860Y873760D02*
X247904Y873760D01*
X276860Y873760D02*
X276860Y886968D01*
X276860Y1005840D02*
X276860Y992632D01*
X276860Y1005840D02*
X247904Y1005840D01*
X-12700Y1005840D02*
X16256Y1005840D01*
X-12700Y1005840D02*
X-12700Y992632D01*
X-62700Y873760D02*
X-162700Y873760D01*
X-112700Y823760D02*
X-112700Y923760D01*
X-150200Y873760D02*
G75*
D01*
G02X-150200Y873760I37500J0*
G01*
X326860Y873760D02*
X426860Y873760D01*
X376860Y823760D02*
X376860Y923760D01*
X339360Y873760D02*
G75*
D01*
G02X339360Y873760I37500J0*
G01*
X364360Y873760D02*
G75*
D01*
G02X364360Y873760I12500J0*
G01*
X-62700Y1005840D02*
X-162700Y1005840D01*
X-112700Y955840D02*
X-112700Y1055840D01*
X-150200Y1005840D02*
G75*
D01*
G02X-150200Y1005840I37500J0*
G01*
X-137700Y1005840D02*
G75*
D01*
G02X-137700Y1005840I25000J0*
G01*
X-125200Y1005840D02*
G75*
D01*
G02X-125200Y1005840I12500J0*
G01*
G54D15*
X106680Y970280D03*
G54D16*
X176460Y889660D03*
X199460Y899160D03*
X176460Y908660D03*
G54D17*
X208280Y930275D03*
X208280Y949325D03*
X76200Y894715D03*
X76200Y913765D03*
X67000Y940435D03*
X67000Y959485D03*
G54D18*
X202380Y927425D02*
X214180Y927425D01*
X214180Y933125D01*
X202380Y933125D01*
X202380Y927425D01*D02*
X202380Y946475D02*
X214180Y946475D01*
X214180Y952175D01*
X202380Y952175D01*
X202380Y946475D01*D02*
X70300Y891865D02*
X82100Y891865D01*
X82100Y897565D01*
X70300Y897565D01*
X70300Y891865D01*D02*
X70300Y910915D02*
X82100Y910915D01*
X82100Y916615D01*
X70300Y916615D01*
X70300Y910915D01*D02*
X61100Y937585D02*
X72900Y937585D01*
X72900Y943285D01*
X61100Y943285D01*
X61100Y937585D01*D02*
X61100Y956635D02*
X72900Y956635D01*
X72900Y962335D01*
X61100Y962335D01*
X61100Y956635D01*D02*
X126180Y947695D02*
X137980Y947695D01*
X137980Y953495D01*
X126180Y953495D01*
X126180Y947695D01*D02*
X126180Y966745D02*
X137980Y966745D01*
X137980Y972545D01*
X126180Y972545D01*
X126180Y966745D01*D02*
X105860Y891815D02*
X117660Y891815D01*
X117660Y897615D01*
X105860Y897615D01*
X105860Y891815D01*D02*
X105860Y910865D02*
X117660Y910865D01*
X117660Y916665D01*
X105860Y916665D01*
X105860Y910865D01*D02*
X141420Y891815D02*
X153220Y891815D01*
X153220Y897615D01*
X141420Y897615D01*
X141420Y891815D01*D02*
X141420Y910865D02*
X153220Y910865D01*
X153220Y916665D01*
X141420Y916665D01*
X141420Y910865D01*D02*
G54D19*
X158140Y947120D03*
X177140Y947120D03*
X167640Y947120D03*
X158140Y973120D03*
X167640Y973120D03*
X177140Y973120D03*
G54D20*
X250400Y990000D03*
X30000Y924600D03*
G54D21*
X225000Y990000D03*
X30000Y950000D03*
G54D22*
X221475Y986475D02*
X228525Y986475D01*
X228525Y993525D01*
X221475Y993525D01*
X221475Y986475D01*D02*
X26475Y946475D02*
X33525Y946475D01*
X33525Y953525D01*
X26475Y953525D01*
X26475Y946475D01*D02*
G54D23*
X58420Y988060D03*
X109220Y939800D03*
X38100Y891540D03*
X236220Y894080D03*
G54D24*
X132080Y950595D03*
X132080Y969645D03*
X111760Y894715D03*
X111760Y913765D03*
X147320Y894715D03*
X147320Y913765D03*

M02*
