G04 Generated by Ultiboard 14.0 *
%FSLAX34Y34*%
%MOMM*%

%ADD10C,0.0001*%
%ADD11C,0.2000*%
%ADD12C,0.2500*%
%ADD13C,0.2032*%
%ADD14C,0.1556*%
%ADD15C,0.1270*%


G04 ColorRGB FFFF00 for the following layer *
%LNSilkscreen Top*%
%LPD*%
G54D10*
G54D11*
X184710Y884660D02*
X191210Y884660D01*
X191210Y913660D02*
X184710Y913660D01*
X184710Y884660D01*
X191210Y884660D02*
X191210Y913660D01*
X153140Y964370D02*
X153140Y955870D01*
X182140Y955870D02*
X182140Y964370D01*
X153140Y964370D01*
X153140Y955870D02*
X182140Y955870D01*
G54D12*
X172710Y916660D02*
G75*
D01*
G02X172710Y916660I1250J0*
G01*
X183890Y976120D02*
G75*
D01*
G02X183890Y976120I1250J0*
G01*
G54D13*
X234520Y921711D02*
X224520Y921711D01*
X224520Y925693D01*
X226520Y927684D01*
X227520Y927684D01*
X229520Y925693D01*
X229520Y921711D01*
X229520Y922706D02*
X234520Y927684D01*
X226520Y931666D02*
X224520Y933657D01*
X234520Y933657D01*
X234520Y930670D02*
X234520Y936643D01*
X218863Y956733D02*
X218863Y922867D01*
X197697Y922867D02*
X197697Y956733D01*
X218863Y922867D02*
X197697Y922867D01*
X197697Y956733D02*
X218863Y956733D01*
X61800Y892535D02*
X51800Y892535D01*
X51800Y896517D01*
X53800Y898508D01*
X54800Y898508D01*
X56800Y896517D01*
X56800Y892535D01*
X56800Y893531D02*
X61800Y898508D01*
X52800Y902490D02*
X51800Y903486D01*
X51800Y905477D01*
X53800Y907468D01*
X55800Y907468D01*
X56800Y906472D01*
X57800Y907468D01*
X59800Y907468D01*
X61800Y905477D01*
X61800Y903486D01*
X60800Y902490D01*
X56800Y903486D02*
X56800Y906472D01*
X86783Y921173D02*
X86783Y887307D01*
X65617Y887307D02*
X65617Y921173D01*
X86783Y887307D02*
X65617Y887307D01*
X65617Y921173D02*
X86783Y921173D01*
X50060Y940795D02*
X40060Y940795D01*
X40060Y944777D01*
X42060Y946768D01*
X43060Y946768D01*
X45060Y944777D01*
X45060Y940795D01*
X45060Y941791D02*
X50060Y946768D01*
X42060Y949755D02*
X40060Y951746D01*
X40060Y953737D01*
X42060Y955728D01*
X43060Y955728D01*
X50060Y949755D01*
X50060Y955728D01*
X49060Y955728D01*
X77583Y966893D02*
X77583Y933027D01*
X56417Y933027D02*
X56417Y966893D01*
X77583Y933027D02*
X56417Y933027D01*
X56417Y966893D02*
X77583Y966893D01*
X213711Y967956D02*
X216533Y966445D01*
X219356Y966445D01*
X222178Y967956D01*
X222178Y974004D01*
X226411Y972492D02*
X229233Y974004D01*
X232056Y974004D01*
X234878Y972492D01*
X234878Y971736D01*
X226411Y966445D01*
X234878Y966445D01*
X234878Y967200D01*
X263100Y977300D02*
X212300Y977300D01*
X231350Y1002700D02*
X212300Y1002700D01*
X212300Y977300D01*
X263100Y1002700D02*
X239817Y1002700D01*
X235583Y1002700D02*
X235583Y994233D01*
X233467Y1000583D02*
X235583Y1002700D01*
X263100Y1002700D02*
X263100Y977300D01*
X21456Y981809D02*
X19945Y978987D01*
X19945Y976164D01*
X21456Y973342D01*
X27504Y973342D01*
X25992Y967698D02*
X27504Y964876D01*
X19945Y964876D01*
X19945Y969109D02*
X19945Y960642D01*
X17300Y911900D02*
X17300Y962700D01*
X42700Y943650D02*
X42700Y962700D01*
X17300Y962700D01*
X42700Y911900D02*
X42700Y935183D01*
X42700Y939417D02*
X34233Y939417D01*
X40583Y941533D02*
X42700Y939417D01*
X42700Y911900D02*
X17300Y911900D01*
X107840Y972236D02*
X105840Y974227D01*
X105840Y976218D01*
X107840Y978209D01*
X113840Y978209D01*
X115840Y976218D01*
X115840Y974227D01*
X113840Y972236D01*
X113840Y968254D02*
X115840Y966263D01*
X105840Y966263D01*
X105840Y969250D02*
X105840Y963277D01*
X121497Y943187D02*
X121497Y977053D01*
X142663Y977053D02*
X142663Y943187D01*
X121497Y977053D02*
X142663Y977053D01*
X142663Y943187D02*
X121497Y943187D01*
X87520Y916356D02*
X85520Y918347D01*
X85520Y920338D01*
X87520Y922329D01*
X93520Y922329D01*
X95520Y920338D01*
X95520Y918347D01*
X93520Y916356D01*
X93520Y913370D02*
X95520Y911379D01*
X95520Y909388D01*
X93520Y907397D01*
X92520Y907397D01*
X85520Y913370D01*
X85520Y907397D01*
X86520Y907397D01*
X101177Y887307D02*
X101177Y921173D01*
X122343Y921173D02*
X122343Y887307D01*
X101177Y921173D02*
X122343Y921173D01*
X122343Y887307D02*
X101177Y887307D01*
X123080Y916356D02*
X121080Y918347D01*
X121080Y920338D01*
X123080Y922329D01*
X129080Y922329D01*
X131080Y920338D01*
X131080Y918347D01*
X129080Y916356D01*
X130080Y912374D02*
X131080Y911379D01*
X131080Y909388D01*
X129080Y907397D01*
X127080Y907397D01*
X126080Y908392D01*
X125080Y907397D01*
X123080Y907397D01*
X121080Y909388D01*
X121080Y911379D01*
X122080Y912374D01*
X126080Y911379D02*
X126080Y908392D01*
X136737Y887307D02*
X136737Y921173D01*
X157903Y921173D02*
X157903Y887307D01*
X136737Y921173D02*
X157903Y921173D01*
X157903Y887307D02*
X136737Y887307D01*
G54D14*
X202200Y966744D02*
X194200Y966744D01*
X192200Y964753D01*
X192200Y962762D01*
X194200Y960771D01*
X202200Y960771D01*
X200200Y956789D02*
X202200Y954798D01*
X192200Y954798D01*
X192200Y957784D02*
X192200Y951811D01*
G54D15*
X-12700Y873760D02*
X-12700Y886968D01*
X-12700Y873760D02*
X16256Y873760D01*
X276860Y873760D02*
X247904Y873760D01*
X276860Y873760D02*
X276860Y886968D01*
X276860Y1005840D02*
X276860Y992632D01*
X276860Y1005840D02*
X247904Y1005840D01*
X-12700Y1005840D02*
X16256Y1005840D01*
X-12700Y1005840D02*
X-12700Y992632D01*
X-62700Y873760D02*
X-162700Y873760D01*
X-112700Y823760D02*
X-112700Y923760D01*
X-150200Y873760D02*
G75*
D01*
G02X-150200Y873760I37500J0*
G01*
X326860Y873760D02*
X426860Y873760D01*
X376860Y823760D02*
X376860Y923760D01*
X339360Y873760D02*
G75*
D01*
G02X339360Y873760I37500J0*
G01*
X364360Y873760D02*
G75*
D01*
G02X364360Y873760I12500J0*
G01*
X-62700Y1005840D02*
X-162700Y1005840D01*
X-112700Y955840D02*
X-112700Y1055840D01*
X-150200Y1005840D02*
G75*
D01*
G02X-150200Y1005840I37500J0*
G01*
X-137700Y1005840D02*
G75*
D01*
G02X-137700Y1005840I25000J0*
G01*
X-125200Y1005840D02*
G75*
D01*
G02X-125200Y1005840I12500J0*
G01*

M02*
