G04 Generated by Ultiboard 14.0 *
%FSLAX34Y34*%
%MOMM*%

%ADD10C,0.0001*%
%ADD11C,0.1270*%
%ADD12C,2.0000*%
%ADD13R,1.0051X1.0051*%
%ADD14C,0.9949*%
%ADD15C,1.8000*%
%ADD16C,3.0000*%


G04 ColorRGB 9900CC for the following layer *
%LNSolder Mask Bottom*%
%LPD*%
G54D10*
G54D11*
X48795Y574580D02*
X48795Y617652D01*
X48795Y574580D02*
X108632Y574580D01*
X647165Y574580D02*
X587328Y574580D01*
X647165Y574580D02*
X647165Y617652D01*
X647165Y1005300D02*
X647165Y962228D01*
X647165Y1005300D02*
X587328Y1005300D01*
X48795Y1005300D02*
X108632Y1005300D01*
X48795Y1005300D02*
X48795Y962228D01*
X-1205Y574580D02*
X-101205Y574580D01*
X-51205Y524580D02*
X-51205Y624580D01*
X-88705Y574580D02*
G75*
D01*
G02X-88705Y574580I37500J0*
G01*
X697165Y574580D02*
X797165Y574580D01*
X747165Y524580D02*
X747165Y624580D01*
X709665Y574580D02*
G75*
D01*
G02X709665Y574580I37500J0*
G01*
X734665Y574580D02*
G75*
D01*
G02X734665Y574580I12500J0*
G01*
X-1205Y1005300D02*
X-101205Y1005300D01*
X-51205Y955300D02*
X-51205Y1055300D01*
X-88705Y1005300D02*
G75*
D01*
G02X-88705Y1005300I37500J0*
G01*
X-76205Y1005300D02*
G75*
D01*
G02X-76205Y1005300I25000J0*
G01*
X-63705Y1005300D02*
G75*
D01*
G02X-63705Y1005300I12500J0*
G01*
G54D12*
X96520Y678180D03*
X505400Y970000D03*
X441960Y838200D03*
X238760Y833120D03*
X172720Y901700D03*
X160020Y764540D03*
X462280Y617220D03*
X345440Y680720D03*
X386080Y784860D03*
X620000Y625400D03*
G54D13*
X480000Y970000D03*
X620000Y600000D03*
G54D14*
X474975Y964975D02*
X485025Y964975D01*
X485025Y975025D01*
X474975Y975025D01*
X474975Y964975D01*D02*
X614975Y594975D02*
X625025Y594975D01*
X625025Y605025D01*
X614975Y605025D01*
X614975Y594975D01*D02*
G54D15*
X205740Y800100D03*
X198120Y706120D03*
X342900Y756920D03*
G54D16*
X180000Y960000D03*
X230800Y960000D03*

M02*
