G04 Generated by Ultiboard 14.0 *
%FSLAX34Y34*%
%MOMM*%

%ADD10C,0.0001*%
%ADD11C,0.1270*%


G04 ColorRGB FF14FF for the following layer *
%LNSilkscreen Bottom*%
%LPD*%
G54D10*
G54D11*
X48795Y574580D02*
X48795Y617652D01*
X48795Y574580D02*
X108632Y574580D01*
X647165Y574580D02*
X587328Y574580D01*
X647165Y574580D02*
X647165Y617652D01*
X647165Y1005300D02*
X647165Y962228D01*
X647165Y1005300D02*
X587328Y1005300D01*
X48795Y1005300D02*
X108632Y1005300D01*
X48795Y1005300D02*
X48795Y962228D01*
X-1205Y574580D02*
X-101205Y574580D01*
X-51205Y524580D02*
X-51205Y624580D01*
X-88705Y574580D02*
G75*
D01*
G02X-88705Y574580I37500J0*
G01*
X697165Y574580D02*
X797165Y574580D01*
X747165Y524580D02*
X747165Y624580D01*
X709665Y574580D02*
G75*
D01*
G02X709665Y574580I37500J0*
G01*
X734665Y574580D02*
G75*
D01*
G02X734665Y574580I12500J0*
G01*
X-1205Y1005300D02*
X-101205Y1005300D01*
X-51205Y955300D02*
X-51205Y1055300D01*
X-88705Y1005300D02*
G75*
D01*
G02X-88705Y1005300I37500J0*
G01*
X-76205Y1005300D02*
G75*
D01*
G02X-76205Y1005300I25000J0*
G01*
X-63705Y1005300D02*
G75*
D01*
G02X-63705Y1005300I12500J0*
G01*

M02*
