G04 Generated by Ultiboard 14.0 *
%FSLAX34Y34*%
%MOMM*%

%ADD10C,0.0001*%
%ADD11C,0.2540*%
%ADD12C,0.8000*%
%ADD13C,0.6000*%
%ADD14C,0.1270*%
%ADD15C,2.0000*%
%ADD16R,1.0051X1.0051*%
%ADD17C,0.9949*%
%ADD18C,1.8000*%
%ADD19C,3.0000*%


G04 ColorRGB 0000FF for the following layer *
%LNCopper Bottom*%
%LPD*%
G54D10*
G36*
X609645Y583885D02*
X609645Y583885D01*
X58100Y583885D01*
X58100Y995995D01*
X637860Y995995D01*
X637860Y583885D01*
X630355Y583885D01*
G75*
D01*
G03X637329Y594975I-5330J11090*
G01*
X637329Y594975D01*
X637329Y605025D01*
G74*
D01*
G03X633179Y614239I12304J0*
G01*
G75*
D01*
G03X626124Y641548I-13179J11161*
G01*
X626124Y641548D01*
X626124Y617280D01*
G74*
D01*
G03X625025Y617329I1097J12255*
G01*
X625025Y617329D01*
X614975Y617329D01*
G75*
D01*
G03X613876Y617280I-2J-12304*
G01*
X613876Y617280D01*
X613876Y641548D01*
G75*
D01*
G03X606821Y614239I6124J-16148*
G01*
G74*
D01*
G03X602671Y605025I8153J9214*
G01*
X602671Y605025D01*
X602671Y594975D01*
G75*
D01*
G03X609645Y583885I12304J0*
G01*
D02*
G37*
%LPC*%
G36*
X617000Y625400D02*
G75*
D01*
G03X617000Y625400I3000J0*
G01*
D02*
G37*
G36*
X456156Y633368D02*
G75*
D01*
G03X456156Y601072I6123J-16148*
G01*
X456156Y601072D01*
X456156Y633368D01*
D02*
G37*
G36*
X468404Y633368D02*
X468404Y633368D01*
X468404Y601072D01*
G75*
D01*
G03X468404Y633368I-6123J16148*
G01*
D02*
G37*
G36*
X459030Y617220D02*
G75*
D01*
G03X459030Y617220I3250J0*
G01*
D02*
G37*
G36*
X90396Y694328D02*
G75*
D01*
G03X90396Y662032I6123J-16148*
G01*
X90396Y662032D01*
X90396Y694328D01*
D02*
G37*
G36*
X102644Y694328D02*
X102644Y694328D01*
X102644Y662032D01*
G75*
D01*
G03X102644Y694328I-6123J16148*
G01*
D02*
G37*
G36*
X93270Y678180D02*
G75*
D01*
G03X93270Y678180I3250J0*
G01*
D02*
G37*
G36*
X339316Y696868D02*
G75*
D01*
G03X339316Y664572I6123J-16148*
G01*
X339316Y664572D01*
X339316Y696868D01*
D02*
G37*
G36*
X351564Y696868D02*
X351564Y696868D01*
X351564Y664572D01*
G75*
D01*
G03X351564Y696868I-6123J16148*
G01*
D02*
G37*
G36*
X342190Y680720D02*
G75*
D01*
G03X342190Y680720I3250J0*
G01*
D02*
G37*
G36*
X192351Y721333D02*
G75*
D01*
G03X192351Y690907I5769J-15213*
G01*
X192351Y690907D01*
X192351Y721333D01*
D02*
G37*
G36*
X203890Y721333D02*
X203890Y721333D01*
X203890Y690907D01*
G75*
D01*
G03X203890Y721333I-5769J15213*
G01*
D02*
G37*
G36*
X195620Y706120D02*
G75*
D01*
G03X195620Y706120I2500J0*
G01*
D02*
G37*
G36*
X142750Y764540D02*
G75*
D01*
G03X142750Y764540I17270J0*
G01*
D02*
G37*
G36*
X337131Y772133D02*
G75*
D01*
G03X337131Y741707I5769J-15213*
G01*
X337131Y741707D01*
X337131Y772133D01*
D02*
G37*
G36*
X348670Y772133D02*
X348670Y772133D01*
X348670Y741707D01*
G75*
D01*
G03X348670Y772133I-5769J15213*
G01*
D02*
G37*
G36*
X340400Y756920D02*
G75*
D01*
G03X340400Y756920I2500J0*
G01*
D02*
G37*
G36*
X379956Y801008D02*
G75*
D01*
G03X379956Y768712I6123J-16148*
G01*
X379956Y768712D01*
X379956Y801008D01*
D02*
G37*
G36*
X392204Y801008D02*
X392204Y801008D01*
X392204Y768712D01*
G75*
D01*
G03X392204Y801008I-6123J16148*
G01*
D02*
G37*
G36*
X382830Y784860D02*
G75*
D01*
G03X382830Y784860I3250J0*
G01*
D02*
G37*
G36*
X199971Y815313D02*
G75*
D01*
G03X199971Y784887I5769J-15213*
G01*
X199971Y784887D01*
X199971Y815313D01*
D02*
G37*
G36*
X211510Y815313D02*
X211510Y815313D01*
X211510Y784887D01*
G75*
D01*
G03X211510Y815313I-5769J15213*
G01*
D02*
G37*
G36*
X203240Y800100D02*
G75*
D01*
G03X203240Y800100I2500J0*
G01*
D02*
G37*
G36*
X232636Y849268D02*
G75*
D01*
G03X232636Y816972I6123J-16148*
G01*
X232636Y816972D01*
X232636Y849268D01*
D02*
G37*
G36*
X244884Y849268D02*
X244884Y849268D01*
X244884Y816972D01*
G75*
D01*
G03X244884Y849268I-6123J16148*
G01*
D02*
G37*
G36*
X235510Y833120D02*
G75*
D01*
G03X235510Y833120I3250J0*
G01*
D02*
G37*
G36*
X435836Y854348D02*
G75*
D01*
G03X435836Y822052I6123J-16148*
G01*
X435836Y822052D01*
X435836Y854348D01*
D02*
G37*
G36*
X448084Y854348D02*
X448084Y854348D01*
X448084Y822052D01*
G75*
D01*
G03X448084Y854348I-6123J16148*
G01*
D02*
G37*
G36*
X438710Y838200D02*
G75*
D01*
G03X438710Y838200I3250J0*
G01*
D02*
G37*
G36*
X155450Y901700D02*
G75*
D01*
G03X155450Y901700I17270J0*
G01*
D02*
G37*
G36*
X157730Y960000D02*
G75*
D01*
G03X157730Y960000I22270J0*
G01*
D02*
G37*
G36*
X222903Y980823D02*
G75*
D01*
G03X222903Y939177I7897J-20823*
G01*
X222903Y939177D01*
X222903Y980823D01*
D02*
G37*
G36*
X238697Y980823D02*
X238697Y980823D01*
X238697Y939177D01*
G75*
D01*
G03X238697Y980823I-7897J20823*
G01*
D02*
G37*
G36*
X226800Y960000D02*
G75*
D01*
G03X226800Y960000I4000J0*
G01*
D02*
G37*
G36*
X494239Y956821D02*
G74*
D01*
G03X499276Y953852I11161J13179*
G01*
X499276Y953852D01*
X499276Y986148D01*
G74*
D01*
G03X494239Y983179I6124J16148*
G01*
G74*
D01*
G03X485025Y987329I9214J8153*
G01*
X485025Y987329D01*
X474975Y987329D01*
G75*
D01*
G03X462671Y975025I0J-12304*
G01*
X462671Y975025D01*
X462671Y964975D01*
G75*
D01*
G03X474975Y952671I12304J0*
G01*
X474975Y952671D01*
X485025Y952671D01*
G74*
D01*
G03X494239Y956821I0J12304*
G01*
D02*
G37*
G36*
X511524Y986148D02*
X511524Y986148D01*
X511524Y953852D01*
G75*
D01*
G03X511524Y986148I-6123J16148*
G01*
D02*
G37*
G36*
X502400Y970000D02*
G75*
D01*
G03X502400Y970000I3000J0*
G01*
D02*
G37*
%LPD*%
G54D11*
X617000Y625400D02*
G75*
D01*
G03X617000Y625400I3000J0*
G01*
X456156Y633368D02*
G75*
D01*
G03X456156Y601072I6123J-16148*
G01*
X456156Y633368D01*
X468404Y633368D02*
X468404Y601072D01*
G75*
D01*
G03X468404Y633368I-6123J16148*
G01*
X459030Y617220D02*
G75*
D01*
G03X459030Y617220I3250J0*
G01*
X90396Y694328D02*
G75*
D01*
G03X90396Y662032I6123J-16148*
G01*
X90396Y694328D01*
X102644Y694328D02*
X102644Y662032D01*
G75*
D01*
G03X102644Y694328I-6123J16148*
G01*
X93270Y678180D02*
G75*
D01*
G03X93270Y678180I3250J0*
G01*
X339316Y696868D02*
G75*
D01*
G03X339316Y664572I6123J-16148*
G01*
X339316Y696868D01*
X351564Y696868D02*
X351564Y664572D01*
G75*
D01*
G03X351564Y696868I-6123J16148*
G01*
X342190Y680720D02*
G75*
D01*
G03X342190Y680720I3250J0*
G01*
X192351Y721333D02*
G75*
D01*
G03X192351Y690907I5769J-15213*
G01*
X192351Y721333D01*
X203890Y721333D02*
X203890Y690907D01*
G75*
D01*
G03X203890Y721333I-5769J15213*
G01*
X195620Y706120D02*
G75*
D01*
G03X195620Y706120I2500J0*
G01*
X142750Y764540D02*
G75*
D01*
G03X142750Y764540I17270J0*
G01*
X337131Y772133D02*
G75*
D01*
G03X337131Y741707I5769J-15213*
G01*
X337131Y772133D01*
X348670Y772133D02*
X348670Y741707D01*
G75*
D01*
G03X348670Y772133I-5769J15213*
G01*
X340400Y756920D02*
G75*
D01*
G03X340400Y756920I2500J0*
G01*
X379956Y801008D02*
G75*
D01*
G03X379956Y768712I6123J-16148*
G01*
X379956Y801008D01*
X392204Y801008D02*
X392204Y768712D01*
G75*
D01*
G03X392204Y801008I-6123J16148*
G01*
X382830Y784860D02*
G75*
D01*
G03X382830Y784860I3250J0*
G01*
X199971Y815313D02*
G75*
D01*
G03X199971Y784887I5769J-15213*
G01*
X199971Y815313D01*
X211510Y815313D02*
X211510Y784887D01*
G75*
D01*
G03X211510Y815313I-5769J15213*
G01*
X203240Y800100D02*
G75*
D01*
G03X203240Y800100I2500J0*
G01*
X232636Y849268D02*
G75*
D01*
G03X232636Y816972I6123J-16148*
G01*
X232636Y849268D01*
X244884Y849268D02*
X244884Y816972D01*
G75*
D01*
G03X244884Y849268I-6123J16148*
G01*
X235510Y833120D02*
G75*
D01*
G03X235510Y833120I3250J0*
G01*
X435836Y854348D02*
G75*
D01*
G03X435836Y822052I6123J-16148*
G01*
X435836Y854348D01*
X448084Y854348D02*
X448084Y822052D01*
G75*
D01*
G03X448084Y854348I-6123J16148*
G01*
X438710Y838200D02*
G75*
D01*
G03X438710Y838200I3250J0*
G01*
X155450Y901700D02*
G75*
D01*
G03X155450Y901700I17270J0*
G01*
X157730Y960000D02*
G75*
D01*
G03X157730Y960000I22270J0*
G01*
X222903Y980823D02*
G75*
D01*
G03X222903Y939177I7897J-20823*
G01*
X222903Y980823D01*
X238697Y980823D02*
X238697Y939177D01*
G75*
D01*
G03X238697Y980823I-7897J20823*
G01*
X226800Y960000D02*
G75*
D01*
G03X226800Y960000I4000J0*
G01*
X494239Y956821D02*
G74*
D01*
G03X499276Y953852I11161J13179*
G01*
X499276Y986148D01*
G74*
D01*
G03X494239Y983179I6124J16148*
G01*
G74*
D01*
G03X485025Y987329I9214J8153*
G01*
X474975Y987329D01*
G75*
D01*
G03X462671Y975025I0J-12304*
G01*
X462671Y964975D01*
G75*
D01*
G03X474975Y952671I12304J0*
G01*
X485025Y952671D01*
G74*
D01*
G03X494239Y956821I0J12304*
G01*
X511524Y986148D02*
X511524Y953852D01*
G75*
D01*
G03X511524Y986148I-6123J16148*
G01*
X502400Y970000D02*
G75*
D01*
G03X502400Y970000I3000J0*
G01*
X609645Y583885D02*
X58100Y583885D01*
X58100Y995995D01*
X637860Y995995D01*
X637860Y583885D01*
X630355Y583885D01*
G75*
D01*
G03X637329Y594975I-5330J11090*
G01*
X637329Y605025D01*
G74*
D01*
G03X633179Y614239I12304J0*
G01*
G75*
D01*
G03X626124Y641548I-13179J11161*
G01*
X626124Y617280D01*
G74*
D01*
G03X625025Y617329I1097J12255*
G01*
X614975Y617329D01*
G75*
D01*
G03X613876Y617280I-2J-12304*
G01*
X613876Y641548D01*
G75*
D01*
G03X606821Y614239I6124J-16148*
G01*
G74*
D01*
G03X602671Y605025I8153J9214*
G01*
X602671Y594975D01*
G75*
D01*
G03X609645Y583885I12304J0*
G01*
G54D12*
X561340Y624840D02*
X624840Y624840D01*
X96520Y673100D02*
X101600Y678180D01*
X96520Y678180D02*
X96520Y840440D01*
X505400Y954980D02*
X505400Y970000D01*
X449580Y899160D02*
X505400Y954980D01*
X337940Y960000D02*
X398780Y899160D01*
X449580Y899160D01*
X230800Y960000D02*
X337940Y960000D01*
X490220Y662940D02*
X528320Y624840D01*
X561340Y624840D01*
X490220Y662940D02*
X490220Y721360D01*
X441960Y769620D01*
X441960Y838200D01*
X230800Y960000D02*
X241300Y949500D01*
X241300Y833120D01*
X369570Y781050D02*
X377190Y781050D01*
X230800Y960000D02*
X192520Y921720D01*
X162260Y921720D02*
X96520Y855980D01*
X96520Y840440D01*
X162260Y921720D02*
X192520Y921720D01*
X238760Y833120D02*
X238760Y955040D01*
X231140Y962660D01*
X377190Y781050D02*
X378460Y779780D01*
X289560Y784860D02*
X377437Y784860D01*
X241300Y833120D02*
X289560Y784860D01*
X441960Y797560D02*
X426720Y782320D01*
X378460Y782320D01*
X345440Y680720D02*
X345440Y749300D01*
X378460Y782320D01*
X465838Y586740D02*
X463495Y589083D01*
X463495Y614805D02*
X463495Y589083D01*
X523240Y586740D02*
X561340Y624840D01*
X96520Y627380D02*
X137160Y586740D01*
X523240Y586740D01*
X96520Y673100D02*
X96520Y627380D01*
G54D13*
X200660Y711200D02*
X129540Y711200D01*
X96520Y678180D01*
X205740Y800100D02*
X205740Y828040D01*
X210820Y833120D01*
X238760Y833120D01*
G54D14*
X48795Y574580D02*
X48795Y617652D01*
X48795Y574580D02*
X108632Y574580D01*
X647165Y574580D02*
X587328Y574580D01*
X647165Y574580D02*
X647165Y617652D01*
X647165Y1005300D02*
X647165Y962228D01*
X647165Y1005300D02*
X587328Y1005300D01*
X48795Y1005300D02*
X108632Y1005300D01*
X48795Y1005300D02*
X48795Y962228D01*
X-1205Y574580D02*
X-101205Y574580D01*
X-51205Y524580D02*
X-51205Y624580D01*
X-88705Y574580D02*
G75*
D01*
G02X-88705Y574580I37500J0*
G01*
X697165Y574580D02*
X797165Y574580D01*
X747165Y524580D02*
X747165Y624580D01*
X709665Y574580D02*
G75*
D01*
G02X709665Y574580I37500J0*
G01*
X734665Y574580D02*
G75*
D01*
G02X734665Y574580I12500J0*
G01*
X-1205Y1005300D02*
X-101205Y1005300D01*
X-51205Y955300D02*
X-51205Y1055300D01*
X-88705Y1005300D02*
G75*
D01*
G02X-88705Y1005300I37500J0*
G01*
X-76205Y1005300D02*
G75*
D01*
G02X-76205Y1005300I25000J0*
G01*
X-63705Y1005300D02*
G75*
D01*
G02X-63705Y1005300I12500J0*
G01*
G54D15*
X96520Y678180D03*
X505400Y970000D03*
X441960Y838200D03*
X238760Y833120D03*
X172720Y901700D03*
X160020Y764540D03*
X462280Y617220D03*
X345440Y680720D03*
X386080Y784860D03*
X620000Y625400D03*
G54D16*
X480000Y970000D03*
X620000Y600000D03*
G54D17*
X474975Y964975D02*
X485025Y964975D01*
X485025Y975025D01*
X474975Y975025D01*
X474975Y964975D01*D02*
X614975Y594975D02*
X625025Y594975D01*
X625025Y605025D01*
X614975Y605025D01*
X614975Y594975D01*D02*
G54D18*
X205740Y800100D03*
X198120Y706120D03*
X342900Y756920D03*
G54D19*
X180000Y960000D03*
X230800Y960000D03*

M02*
